# xmcd
#
# Track frame offsets: 
#        150
#        14332
#        35697
#        49664
#        64821
#        83941
#        102188
#        120022
#        133286
#        149510
#        169753
#        188494
#
# Disc length: 2775 seconds
#
# Revision: 0
# Processed by: cddbd v1.5.2PL0 Copyright (c) Steve Scherf et al.
# Submitted via: ExactAudioCopy v0.95b4
#
DISCID=a00ad50c
DTITLE=Ruby Dee and The Snakehandlers - North of Bakersfield
DYEAR=2006
DGENRE=Roots
TTITLE0=Who is She?
TTITLE1=Just One Day
TTITLE2=So Lonely
TTITLE3=Something Bad
TTITLE4=Now I Want You (Out of My Head)
TTITLE5=After the Flood
TTITLE6=So Long
TTITLE7=I Remember You
TTITLE8=4500 Saturdays
TTITLE9=I Will Always Return
TTITLE10=Make It last
TTITLE11=Walkin' Lie
EXTD=
EXTT0=
EXTT1=
EXTT2=
EXTT3=
EXTT4=
EXTT5=
EXTT6=
EXTT7=
EXTT8=
EXTT9=
EXTT10=
EXTT11=
PLAYORDER=
